HIERARCHY
ROOT pelvis
{
	OFFSET 0.003123 -0.351407 0.012037
	CHANNELS 6 Xposition Yposition Zposition Zrotation Yrotation Xrotation 
	JOINT left_hip
	{
		OFFSET 0.058189 -0.092763 -0.026001
		CHANNELS 3 Zrotation Yrotation Xrotation
		JOINT left_knee
		{
			OFFSET 0.054695 -0.378753 -0.009396
			CHANNELS 3 Zrotation Yrotation Xrotation
			JOINT left_ankle
			{
				OFFSET -0.043453 -0.403059 -0.031876
				CHANNELS 3 Zrotation Yrotation Xrotation
				JOINT left_foot
				{
					OFFSET 0.047257 -0.057997 0.118216
					CHANNELS 3 Zrotation Yrotation Xrotation
					End Site
					{
						OFFSET 0.000000 0.000000 0.000000
					}
				}
			}
		}
	}
	JOINT right_hip
	{
		OFFSET -0.063267 -0.103908 -0.021250
		CHANNELS 3 Zrotation Yrotation Xrotation
		JOINT right_knee
		{
			OFFSET -0.044210 -0.362380 -0.016824
			CHANNELS 3 Zrotation Yrotation Xrotation
			JOINT right_ankle
			{
				OFFSET 0.015417 -0.410728 -0.020192
				CHANNELS 3 Zrotation Yrotation Xrotation
				JOINT right_foot
				{
					OFFSET -0.038812 -0.058328 0.119049
					CHANNELS 3 Zrotation Yrotation Xrotation
					End Site
					{
						OFFSET 0.000000 0.000000 0.000000
					}
				}
			}
		}
	}
	JOINT spine_1
	{
		OFFSET -0.002763 0.109891 -0.027618
		CHANNELS 3 Zrotation Yrotation Xrotation
		JOINT spine_2
		{
			OFFSET 0.009448 0.131853 -0.005940
			CHANNELS 3 Zrotation Yrotation Xrotation
			JOINT spine_3
			{
				OFFSET -0.011330 0.052235 0.028447
				CHANNELS 3 Zrotation Yrotation Xrotation
				JOINT neck
				{
					OFFSET -0.012164 0.165167 -0.031615
					CHANNELS 3 Zrotation Yrotation Xrotation
					JOINT head
					{
						OFFSET 0.024783 0.160452 0.020737
						CHANNELS 3 Zrotation Yrotation Xrotation
						End Site
						{
							OFFSET 0.000000 0.000000 0.000000
						}
					}
				}
				JOINT left_collar
				{
					OFFSET 0.046364 0.084944 -0.007220
					CHANNELS 3 Zrotation Yrotation Xrotation
					JOINT left_shoulder
					{
						OFFSET 0.119239 0.057728 -0.015461
						CHANNELS 3 Zrotation Yrotation Xrotation
						JOINT left_elbow
						{
							OFFSET 0.254123 -0.072151 -0.042459
							CHANNELS 3 Zrotation Yrotation Xrotation
							JOINT left_wrist
							{
								OFFSET 0.251987 0.023221 -0.002472
								CHANNELS 3 Zrotation Yrotation Xrotation
								JOINT left_index_1
								{
									OFFSET 0.101902 -0.008688 0.019351
									CHANNELS 3 Zrotation Yrotation Xrotation
									JOINT left_index_2
									{
										OFFSET 0.030149 -0.011154 0.001151
										CHANNELS 3 Zrotation Yrotation Xrotation
										JOINT left_index_3
										{
											OFFSET 0.006504 -0.021577 -0.002433
											CHANNELS 3 Zrotation Yrotation Xrotation
											End Site
											{
												OFFSET 0.000000 0.000000 0.000000
											}
										}
									}
								}
								JOINT left_middle_1
								{
									OFFSET 0.109398 -0.006328 -0.003981
									CHANNELS 3 Zrotation Yrotation Xrotation
									JOINT left_middle_2
									{
										OFFSET 0.026472 -0.015218 -0.004641
										CHANNELS 3 Zrotation Yrotation Xrotation
										JOINT left_middle_3
										{
											OFFSET 0.005022 -0.023347 -0.001911
											CHANNELS 3 Zrotation Yrotation Xrotation
											End Site
											{
												OFFSET 0.000000 0.000000 0.000000
											}
										}
									}
								}
								JOINT left_pinky_1
								{
									OFFSET 0.084047 -0.014539 -0.043750
									CHANNELS 3 Zrotation Yrotation Xrotation
									JOINT left_pinky_2
									{
										OFFSET 0.012124 -0.014448 -0.005375
										CHANNELS 3 Zrotation Yrotation Xrotation
										JOINT left_pinky_3
										{
											OFFSET 0.003798 -0.018853 0.000167
											CHANNELS 3 Zrotation Yrotation Xrotation
											End Site
											{
												OFFSET 0.000000 0.000000 0.000000
											}
										}
									}
								}
								JOINT left_ring_1
								{
									OFFSET 0.097444 -0.009268 -0.027345
									CHANNELS 3 Zrotation Yrotation Xrotation
									JOINT left_ring_2
									{
										OFFSET 0.023561 -0.016057 -0.001895
										CHANNELS 3 Zrotation Yrotation Xrotation
										JOINT left_ring_3
										{
											OFFSET 0.004257 -0.023548 0.000814
											CHANNELS 3 Zrotation Yrotation Xrotation
											End Site
											{
												OFFSET 0.000000 0.000000 0.000000
											}
										}
									}
								}
								JOINT left_thumb_1
								{
									OFFSET 0.040636 -0.017977 0.025611
									CHANNELS 3 Zrotation Yrotation Xrotation
									JOINT left_thumb_2
									{
										OFFSET 0.021637 -0.017639 0.011623
										CHANNELS 3 Zrotation Yrotation Xrotation
										JOINT left_thumb_3
										{
											OFFSET 0.024002 -0.008356 0.006548
											CHANNELS 3 Zrotation Yrotation Xrotation
											End Site
											{
												OFFSET 0.000000 0.000000 0.000000
											}
										}
									}
								}
							}
						}
					}
				}
				JOINT right_collar
				{
					OFFSET -0.047695 0.084339 -0.013400
					CHANNELS 3 Zrotation Yrotation Xrotation
					JOINT right_shoulder
					{
						OFFSET -0.102578 0.053524 -0.012669
						CHANNELS 3 Zrotation Yrotation Xrotation
						JOINT right_elbow
						{
							OFFSET -0.271150 -0.036492 -0.026467
							CHANNELS 3 Zrotation Yrotation Xrotation
							JOINT right_wrist
							{
								OFFSET -0.249267 -0.004533 -0.015325
								CHANNELS 3 Zrotation Yrotation Xrotation
								JOINT right_index_1
								{
									OFFSET -0.099881 -0.011783 0.019600
									CHANNELS 3 Zrotation Yrotation Xrotation
									JOINT right_index_2
									{
										OFFSET -0.030148 -0.011154 0.001151
										CHANNELS 3 Zrotation Yrotation Xrotation
										JOINT right_index_3
										{
											OFFSET -0.006505 -0.021577 -0.002432
											CHANNELS 3 Zrotation Yrotation Xrotation
											End Site
											{
												OFFSET 0.000000 0.000000 0.000000
											}
										}
									}
								}
								JOINT right_middle_1
								{
									OFFSET -0.107376 -0.009422 -0.003734
									CHANNELS 3 Zrotation Yrotation Xrotation
									JOINT right_middle_2
									{
										OFFSET -0.026472 -0.015218 -0.004641
										CHANNELS 3 Zrotation Yrotation Xrotation
										JOINT right_middle_3
										{
											OFFSET -0.005022 -0.023347 -0.001911
											CHANNELS 3 Zrotation Yrotation Xrotation
											End Site
											{
												OFFSET 0.000000 0.000000 0.000000
											}
										}
									}
								}
								JOINT right_pinky_1
								{
									OFFSET -0.082027 -0.017634 -0.043503
									CHANNELS 3 Zrotation Yrotation Xrotation
									JOINT right_pinky_2
									{
										OFFSET -0.012123 -0.014448 -0.005374
										CHANNELS 3 Zrotation Yrotation Xrotation
										JOINT right_pinky_3
										{
											OFFSET -0.003798 -0.018852 0.000167
											CHANNELS 3 Zrotation Yrotation Xrotation
											End Site
											{
												OFFSET 0.000000 0.000000 0.000000
											}
										}
									}
								}
								JOINT right_ring_1
								{
									OFFSET -0.095423 -0.012362 -0.027099
									CHANNELS 3 Zrotation Yrotation Xrotation
									JOINT right_ring_2
									{
										OFFSET -0.023561 -0.016057 -0.001895
										CHANNELS 3 Zrotation Yrotation Xrotation
										JOINT right_ring_3
										{
											OFFSET -0.004257 -0.023548 0.000816
											CHANNELS 3 Zrotation Yrotation Xrotation
											End Site
											{
												OFFSET 0.000000 0.000000 0.000000
											}
										}
									}
								}
								JOINT right_thumb_1
								{
									OFFSET -0.038613 -0.021074 0.025861
									CHANNELS 3 Zrotation Yrotation Xrotation
									JOINT right_thumb_2
									{
										OFFSET -0.021636 -0.017639 0.011623
										CHANNELS 3 Zrotation Yrotation Xrotation
										JOINT right_thumb_3
										{
											OFFSET -0.024004 -0.008353 0.006547
											CHANNELS 3 Zrotation Yrotation Xrotation
											End Site
											{
												OFFSET 0.000000 0.000000 0.000000
											}
										}
									}
								}
							}
						}
					}
				}
			}
		}
	}
}
MOTION
Frames: 4
Frame Time: 0.050000
0.000027 0.962698 0.000587 1.890602 -1.152520 -15.048791 5.454843 0.282098 2.884089 -18.376157 4.130780 43.364794 -0.465330 8.643355 14.376354 0.000000 0.000000 0.000000 2.323659 -1.067151 7.255458 -2.057485 0.669339 9.936134 -2.292794 -6.260673 3.112664 0.000000 0.000000 0.000000 1.357078 -0.331470 5.207231 -6.893523 -0.094942 -13.881430 8.995371 -1.397884 27.321849 1.998848 -0.609384 1.191648 0.000000 0.000000 0.000000 -1.585830 -9.743441 4.825590 -52.022491 -23.935612 -5.004854 -38.181493 -21.015312 9.661836 -0.994434 -0.416291 3.397104 -4.522527 1.961968 0.815867 14.875127 -2.677800 -5.986789 0.000000 0.000000 0.000000 -14.257203 -2.045613 -3.246047 -3.497810 -0.801758 -4.468208 0.000000 0.000000 0.000000 4.690251 -15.271914 -18.464051 -62.847359 -18.133993 -18.980728 0.000000 0.000000 0.000000 -13.771572 -5.169725 -3.756640 -32.075711 -7.226476 -12.495956 0.000000 0.000000 0.000000 17.501122 4.650223 -5.688782 -9.919825 -10.946607 -0.099793 0.000000 0.000000 0.000000 3.766123 10.097251 5.208346 53.229419 11.459254 -3.356466 20.574795 13.908729 1.074206 6.824162 3.479203 11.681916 23.744842 -3.809289 0.795032 6.411285 0.017402 -2.705549 0.000000 0.000000 0.000000 46.583974 3.361404 -9.652452 39.733765 1.154043 -9.748597 0.000000 0.000000 0.000000 4.469202 13.738636 -15.229668 98.095924 31.734235 -16.349639 0.000000 0.000000 0.000000 36.115675 7.261591 -6.304647 59.924729 11.069054 -13.601341 0.000000 0.000000 0.000000 -5.855193 -20.936223 19.722054 -0.498955 1.283927 -0.571314 0.000000 0.000000 0.000000 
0.001970 0.964954 0.008507 2.283290 -3.663137 -15.168555 5.748757 0.122668 0.912031 -16.387671 3.924274 44.772795 -0.241160 7.817602 12.566656 0.000000 0.000000 0.000000 1.873022 -1.113657 8.069156 -2.420388 0.683300 9.233659 -1.082431 -4.057015 3.035684 0.000000 0.000000 0.000000 0.971340 -0.381101 5.265414 -6.654710 -0.711207 -15.244661 8.576853 -2.087418 29.646450 2.053564 -0.520321 0.350903 0.000000 0.000000 0.000000 -1.778648 -9.202424 4.628500 -53.520012 -26.108541 -4.072288 -40.014133 -20.484070 9.951591 -1.032919 0.461621 5.423242 -5.556480 2.307495 0.945061 15.749900 -2.731024 -5.428193 0.000000 0.000000 0.000000 -14.807628 -1.685785 -3.221123 -3.130028 -0.820120 -4.571305 0.000000 0.000000 0.000000 4.136896 -14.552702 -17.152185 -65.591956 -20.846919 -21.076718 0.000000 0.000000 0.000000 -14.948330 -4.564652 -3.519877 -32.348797 -8.041264 -14.624408 0.000000 0.000000 0.000000 16.156677 4.542737 -4.805332 -8.224302 -11.117057 -0.685123 0.000000 0.000000 0.000000 3.543414 10.708990 5.454325 53.283805 13.909964 -3.151263 19.895827 14.674010 1.138120 7.993689 1.659069 13.588131 19.489969 -0.899784 0.199928 9.101088 -2.422599 1.159986 0.000000 0.000000 0.000000 42.831160 8.219251 -10.368127 43.807709 -0.745885 -7.955583 0.000000 0.000000 0.000000 2.183242 15.622579 -16.144130 96.299564 36.299455 -19.139649 0.000000 0.000000 0.000000 34.054887 8.380350 -6.813843 61.277030 11.412295 -14.626530 0.000000 0.000000 0.000000 -7.366892 -20.309068 19.250402 0.855593 1.320085 -0.138716 0.000000 0.000000 0.000000 
0.004856 0.966244 0.016426 2.638378 -6.679137 -15.364867 5.552228 0.045685 -0.305889 -13.249132 3.083004 44.338575 -0.302470 6.296595 10.414478 0.000000 0.000000 0.000000 1.363975 -1.095555 8.616235 -2.747960 0.710539 8.960410 0.226760 -1.515687 2.714162 0.000000 0.000000 0.000000 1.015457 -0.431582 5.397923 -6.641665 -0.809091 -14.905439 8.153294 -2.598238 29.639630 2.205977 -0.532572 0.055816 0.000000 0.000000 0.000000 -1.882483 -9.888539 5.064615 -54.359371 -27.887783 -2.988296 -41.912420 -20.810813 10.671913 -1.608601 1.503516 8.341297 -7.602519 3.381746 1.295682 16.537443 -3.010882 -5.657313 0.000000 0.000000 0.000000 -15.475106 -1.337687 -3.284610 -4.089674 -0.328598 -3.058758 0.000000 0.000000 0.000000 4.362652 -14.062659 -15.696633 -69.324081 -22.567063 -21.909995 0.000000 0.000000 0.000000 -15.285188 -3.420768 -3.073496 -35.302327 -6.807556 -12.408967 0.000000 0.000000 0.000000 14.884358 4.549309 -3.697070 -7.909843 -10.518994 -0.518323 0.000000 0.000000 0.000000 3.238426 11.189938 5.622435 52.873715 15.671730 -3.111747 20.676160 15.124543 1.238229 6.932816 2.481540 12.807378 21.914152 -3.700915 0.734486 4.390839 -0.020061 -2.060328 0.000000 0.000000 0.000000 42.892288 4.633156 -9.677744 42.348987 -0.145143 -8.713554 0.000000 0.000000 0.000000 2.144560 14.669117 -14.761444 92.212948 41.325850 -24.103218 0.000000 0.000000 0.000000 34.676099 5.759300 -6.097355 60.706118 7.442304 -9.844974 0.000000 0.000000 0.000000 -6.608956 -20.631899 19.570231 1.369723 -0.125410 0.452054 0.000000 0.000000 0.000000 
0.007623 0.966888 0.024345 2.750813 -9.714526 -15.254739 5.271209 -0.049105 -1.593139 -9.100394 1.594388 42.890519 -0.880323 4.030735 8.599455 0.000000 0.000000 0.000000 1.086442 -1.025158 8.573724 -2.993756 0.750964 9.074682 1.457174 0.946168 2.377701 0.000000 0.000000 0.000000 0.939774 -0.516129 5.882174 -6.477506 -1.053208 -14.881005 8.170846 -3.041642 28.182890 2.150723 -0.709476 1.204248 0.000000 0.000000 0.000000 -2.468282 -11.309495 5.967406 -54.844726 -28.138312 -2.256910 -44.134377 -22.237451 12.107010 -1.649919 2.275174 11.812509 -8.394318 3.724448 1.384395 14.668540 -2.753406 -3.729710 0.000000 0.000000 0.000000 -15.335938 -0.113109 -2.885765 -6.863397 0.087196 -2.812592 0.000000 0.000000 0.000000 5.074138 -14.005484 -14.212684 -75.497416 -26.047443 -23.052308 0.000000 0.000000 0.000000 -14.763536 -2.588438 -2.755975 -39.736154 -6.565070 -12.498360 0.000000 0.000000 0.000000 13.792529 4.977630 -2.136668 -7.775896 -11.478427 -0.666362 0.000000 0.000000 0.000000 2.756135 12.588209 6.302546 52.332560 16.463989 -3.306416 21.431269 15.482232 1.310987 7.470078 2.851530 13.649588 21.370307 -2.211015 0.340279 7.700462 -0.315888 -2.731813 0.000000 0.000000 0.000000 42.466057 7.019406 -10.368035 42.591482 0.755383 -10.477410 0.000000 0.000000 0.000000 4.367734 14.728493 -15.022513 87.961841 41.650946 -26.212323 0.000000 0.000000 0.000000 34.840697 9.736926 -7.418300 59.451167 9.468561 -13.232010 0.000000 0.000000 0.000000 -6.774548 -20.397536 19.567515 -0.047992 1.777978 -0.581549 0.000000 0.000000 0.000000 
